<?xml version="1.0" encoding="utf-8"?>
<!-- Generator: Adobe Illustrator 27.5.0, SVG Export Plug-In . SVG Version: 6.00 Build 0)  -->
<svg version="1.1" xmlns="http://www.w3.org/2000/svg" xmlns:xlink="http://www.w3.org/1999/xlink" x="0px" y="0px"
	 viewBox="0 0 800 800" style="enable-background:new 0 0 800 800;" xml:space="preserve">
<g id="Background">
</g>
<g id="Objects">
	<!--<g>
		<linearGradient id="SVGID_1_" gradientUnits="userSpaceOnUse" x1="522.3102" y1="845.1481" x2="277.6898" y2="421.4533">
			<stop  offset="0" style="stop-color:#1C7DB9"/>
			<stop  offset="0.0483" style="stop-color:#1D81BC"/>
			<stop  offset="0.6778" style="stop-color:#2EABDF"/>
			<stop  offset="1" style="stop-color:#35BBED"/>
		</linearGradient>
		<rect x="55" y="550.023" style="fill:url(#SVGID_1_);" width="690" height="166.555"/>
		<g>
			
				<linearGradient id="SVGID_00000171685054191347107570000009972956212513766792_" gradientUnits="userSpaceOnUse" x1="3.9471" y1="565.0566" x2="-18.1259" y2="526.8252" gradientTransform="matrix(-1 0 0 1 646.1622 0)">
				<stop  offset="0" style="stop-color:#07472E"/>
				<stop  offset="0.2527" style="stop-color:#064D2F"/>
				<stop  offset="0.5761" style="stop-color:#045C31"/>
				<stop  offset="0.9366" style="stop-color:#017735"/>
				<stop  offset="1" style="stop-color:#007C36"/>
			</linearGradient>
			<path style="fill:url(#SVGID_00000171685054191347107570000009972956212513766792_);" d="M616.177,550.023
				c0,0,15.269-17.954,21.801-20.171c6.822-2.315,12.803-2.921,18.034-2.921c23.888,0,29.601,23.092,29.601,23.092H616.177z"/>
			
				<linearGradient id="SVGID_00000058556455500383681410000015346705433712990876_" gradientUnits="userSpaceOnUse" x1="405.7159" y1="737.5496" x2="384.2573" y2="700.3822" gradientTransform="matrix(-1 0 0 1 646.1622 0)">
				<stop  offset="0" style="stop-color:#007C36"/>
				<stop  offset="0.7915" style="stop-color:#07472E"/>
			</linearGradient>
			<path style="fill:url(#SVGID_00000058556455500383681410000015346705433712990876_);" d="M289.957,716.578
				c0,0-19.532,21.027-36.494,21.027c-27.922,0-38.311-21.027-38.311-21.027H289.957z"/>
			
				<linearGradient id="SVGID_00000067202423686993807000000005660190987888669587_" gradientUnits="userSpaceOnUse" x1="287.8557" y1="799.2917" x2="94.994" y2="465.2454" gradientTransform="matrix(-1 0 0 1 646.1622 0)">
				<stop  offset="0" style="stop-color:#007C36"/>
				<stop  offset="1" style="stop-color:#78B72B"/>
			</linearGradient>
			<path style="fill:url(#SVGID_00000067202423686993807000000005660190987888669587_);" d="M442.512,737.606
				c56.966,0,153.966-210.674,215.5-210.674c0,0-153.485-0.033-181.534-0.033c-40.129,0-173.015,210.707-225.015,210.707
				C251.463,737.606,420.978,737.606,442.512,737.606z"/>
		</g>
		
			<linearGradient id="SVGID_00000145775150272304201970000007219225431525532056_" gradientUnits="userSpaceOnUse" x1="273.9806" y1="591.1302" x2="210.7916" y2="481.6836">
			<stop  offset="0" style="stop-color:#007C36"/>
			<stop  offset="0.7915" style="stop-color:#07472E"/>
		</linearGradient>
		<polygon style="fill:url(#SVGID_00000145775150272304201970000007219225431525532056_);" points="155.315,550.023 
			149.315,517.177 345.18,550.023 		"/>
		
			<linearGradient id="SVGID_00000003078661919073509910000014695692915146072991_" gradientUnits="userSpaceOnUse" x1="649.4423" y1="759.6939" x2="599.6564" y2="673.4623">
			<stop  offset="0" style="stop-color:#007C36"/>
			<stop  offset="0.7915" style="stop-color:#07472E"/>
		</linearGradient>
		<polygon style="fill:url(#SVGID_00000003078661919073509910000014695692915146072991_);" points="724.121,716.578 
			540.616,737.606 524.978,716.578 		"/>
		<g>
			<rect x="77.641" y="619.746" style="fill:none;" width="281.999" height="51.999"/>
			<text transform="matrix(1 0 0 1 77.6407 627.0464)"><tspan x="0" y="0" style="fill:#FFFFFF; font-family:'Raleway-Light'; font-size:10px;">&quot;Lorem ipsum dolor sit amet, consectetur adipiscing elit, sed </tspan><tspan x="0" y="16.544" style="fill:#FFFFFF; font-family:'Raleway-Light'; font-size:10px;">do eua. Ut enim ad minim veniam, quis nostrud dolor in </tspan><tspan x="0" y="33.088" style="fill:#FFFFFF; font-family:'Raleway-Light'; font-size:10px;">reprehende velit esse cillum proident, sunt in.</tspan></text>
			
				<text transform="matrix(1 0 0 1 77.6412 600.1147)" style="fill:#FFFFFF; font-family:'Raleway-BoldItalic'; font-size:30px; letter-spacing:1;">SPORT Banners</text>
			<text transform="matrix(0.9885 0 0 1 77.6407 685.9888)" style="fill:#FFFFFF; font-family:'Raleway-Bold'; font-size:12px;">www.website.com</text>
		</g>
		<g>
			<g style="opacity:0.53;">
				<path style="fill:#6CB560;" d="M521.156,527.898c0,0-0.303,0.047-0.889,0.138c-0.293,0.047-0.657,0.106-1.089,0.175
					c-0.414,0.121-0.894,0.263-1.437,0.422c-2.153,0.672-5.14,2.171-8.603,4.565c-3.473,2.393-7.393,5.72-11.704,9.738
					c-4.29,4.048-8.906,8.864-13.86,14.198c-4.931,5.359-10.122,11.315-15.58,17.65c-5.45,6.345-11.122,13.109-16.985,20.12
					c-5.854,7.028-11.904,14.29-18.051,21.67c-6.144,7.392-12.442,14.862-18.758,22.328c-6.355,7.433-12.721,14.866-19.125,22.075
					c-3.191,3.614-6.382,7.18-9.578,10.667c-3.188,3.493-6.347,6.94-9.522,10.269c-6.316,6.691-12.561,13.041-18.664,18.895
					c-6.099,5.858-12.077,11.195-17.788,15.906c-5.69,4.737-11.169,8.788-16.256,12.051c-5.069,3.286-9.797,5.705-13.849,7.295
					c-4.044,1.615-7.435,2.308-9.745,2.475c-1.146,0.171-2.043,0.07-2.634,0.083c-0.593-0.01-0.899-0.014-0.899-0.014
					s0.304-0.042,0.893-0.123c0.585-0.099,1.458-0.145,2.559-0.458c2.226-0.445,5.363-1.619,9.079-3.59
					c3.72-1.977,7.967-4.858,12.599-8.474c4.616-3.643,9.563-8.094,14.816-13.104c5.23-5.038,10.702-10.71,16.398-16.804
					c5.697-6.096,11.565-12.667,17.591-19.514c2.996-3.441,6.042-6.94,9.125-10.481c3.063-3.565,6.162-7.173,9.286-10.811
					c6.221-7.313,12.54-14.743,18.859-22.174c6.343-7.419,12.661-14.87,18.966-22.142c3.139-3.648,6.279-7.245,9.4-10.788
					c3.116-3.546,6.199-7.047,9.281-10.45c6.133-6.834,12.165-13.359,18.005-19.447c5.839-6.089,11.529-11.698,16.926-16.737
					c5.373-5.063,10.523-9.486,15.284-13.178c4.746-3.709,9.17-6.608,13.005-8.655c3.824-2.078,7.125-3.137,9.417-3.546
					c0.576-0.084,1.085-0.157,1.524-0.221c0.438-0.004,0.806-0.007,1.102-0.009C520.851,527.899,521.156,527.898,521.156,527.898z"
					/>
			</g>
			<g style="opacity:0.53;">
				<path style="fill:#6CB560;" d="M558.063,527.898c0,0-0.303,0.047-0.89,0.138c-0.293,0.047-0.656,0.106-1.088,0.175
					c-0.414,0.121-0.893,0.263-1.437,0.422c-2.153,0.672-5.14,2.171-8.604,4.565c-3.472,2.393-7.393,5.72-11.703,9.738
					c-4.291,4.048-8.907,8.864-13.86,14.198c-4.931,5.359-10.122,11.315-15.58,17.65c-5.45,6.345-11.122,13.109-16.986,20.12
					c-5.854,7.028-11.903,14.29-18.05,21.67c-6.144,7.392-12.442,14.862-18.758,22.328c-6.355,7.433-12.721,14.866-19.126,22.075
					c-3.19,3.614-6.381,7.18-9.577,10.667c-3.189,3.493-6.347,6.94-9.521,10.269c-6.316,6.691-12.562,13.041-18.665,18.895
					c-6.098,5.858-12.076,11.195-17.788,15.906c-5.688,4.737-11.168,8.788-16.255,12.051c-5.07,3.286-9.798,5.705-13.849,7.295
					c-4.044,1.615-7.435,2.308-9.745,2.475c-1.145,0.171-2.044,0.07-2.635,0.083c-0.592-0.01-0.897-0.014-0.897-0.014
					s0.304-0.042,0.892-0.123c0.585-0.099,1.459-0.145,2.56-0.458c2.226-0.445,5.363-1.619,9.079-3.59
					c3.72-1.977,7.966-4.858,12.598-8.474c4.616-3.643,9.564-8.094,14.816-13.104c5.23-5.038,10.703-10.71,16.399-16.804
					c5.696-6.096,11.565-12.667,17.59-19.514c2.997-3.441,6.043-6.94,9.126-10.481c3.063-3.565,6.162-7.173,9.286-10.811
					c6.221-7.313,12.539-14.743,18.858-22.174c6.344-7.419,12.661-14.87,18.967-22.142c3.138-3.648,6.279-7.245,9.399-10.788
					c3.117-3.546,6.2-7.047,9.282-10.45c6.133-6.834,12.165-13.359,18.004-19.447c5.839-6.089,11.53-11.698,16.927-16.737
					c5.373-5.063,10.523-9.486,15.283-13.178c4.746-3.709,9.17-6.608,13.006-8.655c3.824-2.078,7.125-3.137,9.416-3.546
					c0.576-0.084,1.086-0.157,1.524-0.221c0.438-0.004,0.806-0.007,1.103-0.009C557.756,527.899,558.063,527.898,558.063,527.898z"
					/>
			</g>
			<g style="opacity:0.53;">
				<path style="fill:#6CB560;" d="M594.968,527.898c0,0-0.302,0.047-0.889,0.138c-0.293,0.047-0.656,0.106-1.089,0.175
					c-0.413,0.121-0.894,0.263-1.436,0.422c-2.153,0.672-5.14,2.171-8.604,4.565c-3.472,2.393-7.392,5.72-11.703,9.738
					c-4.291,4.048-8.907,8.864-13.861,14.198c-4.93,5.359-10.121,11.315-15.58,17.65c-5.449,6.345-11.122,13.109-16.985,20.12
					c-5.854,7.028-11.903,14.29-18.051,21.67c-6.144,7.392-12.441,14.862-18.758,22.328c-6.354,7.433-12.721,14.866-19.125,22.075
					c-3.19,3.614-6.382,7.18-9.577,10.667c-3.189,3.493-6.347,6.94-9.522,10.269c-6.317,6.691-12.563,13.041-18.665,18.895
					c-6.098,5.858-12.076,11.195-17.788,15.906c-5.689,4.737-11.169,8.788-16.255,12.051c-5.07,3.286-9.798,5.705-13.849,7.295
					c-4.044,1.615-7.435,2.308-9.746,2.475c-1.145,0.171-2.043,0.07-2.634,0.083c-0.593-0.01-0.898-0.014-0.898-0.014
					s0.304-0.042,0.892-0.123c0.585-0.099,1.458-0.145,2.559-0.458c2.227-0.445,5.363-1.619,9.079-3.59
					c3.72-1.977,7.967-4.858,12.599-8.474c4.616-3.643,9.564-8.094,14.816-13.104c5.229-5.038,10.702-10.71,16.399-16.804
					c5.696-6.096,11.565-12.667,17.59-19.514c2.996-3.441,6.042-6.94,9.126-10.481c3.062-3.565,6.161-7.173,9.286-10.811
					c6.22-7.313,12.539-14.743,18.858-22.174c6.343-7.419,12.661-14.87,18.967-22.142c3.138-3.648,6.279-7.245,9.399-10.788
					c3.116-3.546,6.199-7.047,9.281-10.45c6.133-6.834,12.166-13.359,18.005-19.447c5.839-6.089,11.53-11.698,16.926-16.737
					c5.374-5.063,10.524-9.486,15.284-13.178c4.746-3.709,9.17-6.608,13.005-8.655c3.825-2.078,7.125-3.137,9.417-3.546
					c0.576-0.084,1.085-0.157,1.524-0.221c0.438-0.004,0.806-0.007,1.103-0.009C594.662,527.899,594.968,527.898,594.968,527.898z"
					/>
			</g>
		</g>
	</g>
	<g>
		
			<linearGradient id="SVGID_00000143604678641282953170000016131105503045282731_" gradientUnits="userSpaceOnUse" x1="522.3102" y1="612.1267" x2="277.6901" y2="188.4323" gradientTransform="matrix(-1 0 0 1 800.0001 0)">
			<stop  offset="0" style="stop-color:#F1840B"/>
			<stop  offset="0.19" style="stop-color:#F59908"/>
			<stop  offset="0.5238" style="stop-color:#FAB904"/>
			<stop  offset="0.8058" style="stop-color:#FECC01"/>
			<stop  offset="1" style="stop-color:#FFD300"/>
		</linearGradient>
		<polygon style="fill:url(#SVGID_00000143604678641282953170000016131105503045282731_);" points="55,483.557 745,483.557 
			745,317.002 55,317.002 		"/>
		<g>
			<g>
				
					<linearGradient id="SVGID_00000181050388815816518660000009785184512426771119_" gradientUnits="userSpaceOnUse" x1="-26.2384" y1="332.298" x2="-48.6143" y2="293.5417" gradientTransform="matrix(1 0 0 1 153.8384 0)">
					<stop  offset="0" style="stop-color:#0B3886"/>
					<stop  offset="0.6755" style="stop-color:#0B4890"/>
					<stop  offset="1" style="stop-color:#0B5296"/>
				</linearGradient>
				<path style="fill:url(#SVGID_00000181050388815816518660000009785184512426771119_);" d="M154.093,317.002
					c0,0-16.481-17.954-23.013-20.171c-6.822-2.315-12.802-2.921-18.033-2.921c-23.889,0-29.602,23.092-29.602,23.092H154.093z"/>
				
					<linearGradient id="SVGID_00000003826040364882028900000004505917419714602128_" gradientUnits="userSpaceOnUse" x1="374.7733" y1="504.5279" x2="353.315" y2="467.3609" gradientTransform="matrix(1 0 0 1 153.8384 0)">
					<stop  offset="0" style="stop-color:#0B3886"/>
					<stop  offset="0.6755" style="stop-color:#0B4890"/>
					<stop  offset="1" style="stop-color:#0B5296"/>
				</linearGradient>
				<path style="fill:url(#SVGID_00000003826040364882028900000004505917419714602128_);" d="M479.102,483.557
					c0,0,19.532,21.027,36.493,21.027c27.922,0,38.312-21.027,38.312-21.027H479.102z"/>
				
					<linearGradient id="SVGID_00000018936009215808138480000001088436657124131977_" gradientUnits="userSpaceOnUse" x1="257.0942" y1="566.1655" x2="64.3561" y2="232.3332" gradientTransform="matrix(1 0 0 1 153.8384 0)">
					<stop  offset="0" style="stop-color:#35BBED"/>
					<stop  offset="0.3906" style="stop-color:#228CC6"/>
					<stop  offset="0.7935" style="stop-color:#1162A3"/>
					<stop  offset="1" style="stop-color:#0B5296"/>
				</linearGradient>
				<path style="fill:url(#SVGID_00000018936009215808138480000001088436657124131977_);" d="M326.547,504.584
					c-56.967,0-153.48-210.669-215.015-210.669c0,0,153-0.037,181.048-0.037c40.13,0,173.015,210.707,225.015,210.707
					C517.595,504.584,348.08,504.584,326.547,504.584z"/>
			</g>
			
				<linearGradient id="SVGID_00000081612829880967390470000000899580896394909825_" gradientUnits="userSpaceOnUse" x1="184.2224" y1="522.4174" x2="143.9851" y2="452.7244">
				<stop  offset="0" style="stop-color:#0B3886"/>
				<stop  offset="0.6755" style="stop-color:#0B4890"/>
				<stop  offset="1" style="stop-color:#0B5296"/>
			</linearGradient>
			<polygon style="fill:url(#SVGID_00000081612829880967390470000000899580896394909825_);" points="90.582,483.557 90.582,515.671 
				251.531,483.557 			"/>
			
				<linearGradient id="SVGID_00000140729557337427001580000016324881572551059118_" gradientUnits="userSpaceOnUse" x1="517.2769" y1="345.4299" x2="474.9119" y2="272.0515">
				<stop  offset="0" style="stop-color:#0B3886"/>
				<stop  offset="0.6755" style="stop-color:#0B4890"/>
				<stop  offset="1" style="stop-color:#0B5296"/>
			</linearGradient>
			<polygon style="fill:url(#SVGID_00000140729557337427001580000016324881572551059118_);" points="566.515,317.002 
				437.108,293.877 435.214,317.002 			"/>
			<g>
				<g style="opacity:0.53;">
					<path style="fill:#689CDE;" d="M240.611,294.926c0,0,0.306,0.001,0.899,0.002c0.296,0.003,0.664,0.005,1.102,0.009
						c0.439,0.064,0.948,0.137,1.524,0.221c2.292,0.41,5.593,1.468,9.417,3.546c3.835,2.047,8.259,4.946,13.005,8.655
						c4.761,3.692,9.911,8.116,15.284,13.178c5.396,5.04,11.087,10.649,16.926,16.738c5.839,6.088,11.872,12.613,18.005,19.447
						c3.082,3.404,6.165,6.905,9.281,10.451c3.121,3.542,6.262,7.14,9.4,10.789c6.305,7.271,12.623,14.722,18.966,22.141
						c6.319,7.43,12.639,14.86,18.859,22.174c3.124,3.637,6.224,7.245,9.286,10.811c3.083,3.541,6.129,7.039,9.125,10.479
						c6.025,6.847,11.895,13.419,17.591,19.514c5.696,6.094,11.169,11.766,16.398,16.805c5.253,5.01,10.2,9.46,14.816,13.104
						c4.632,3.615,8.879,6.497,12.599,8.475c3.716,1.97,6.853,3.145,9.079,3.59c1.1,0.313,1.974,0.358,2.559,0.457
						c0.589,0.081,0.893,0.123,0.893,0.123s-0.306,0.005-0.897,0.014c-0.592-0.013-1.489,0.088-2.635-0.083
						c-2.311-0.167-5.702-0.859-9.745-2.474c-4.052-1.59-8.779-4.01-13.849-7.296c-5.087-3.263-10.566-7.313-16.256-12.05
						c-5.711-4.712-11.69-10.048-17.788-15.906c-6.103-5.854-12.348-12.204-18.664-18.895c-3.175-3.331-6.334-6.776-9.521-10.27
						c-3.196-3.487-6.388-7.053-9.578-10.667c-6.404-7.208-12.771-14.642-19.125-22.075c-6.315-7.465-12.614-14.936-18.758-22.329
						c-6.147-7.379-12.196-14.642-18.051-21.669c-5.863-7.011-11.535-13.776-16.985-20.12c-5.458-6.335-10.649-12.291-15.58-17.65
						c-4.954-5.335-9.569-10.151-13.86-14.198c-4.311-4.019-8.232-7.346-11.704-9.738c-3.464-2.394-6.45-3.894-8.604-4.565
						c-0.543-0.16-1.022-0.3-1.436-0.422c-0.432-0.069-0.796-0.128-1.089-0.174C240.914,294.973,240.611,294.926,240.611,294.926z"
						/>
				</g>
				<g style="opacity:0.53;">
					<path style="fill:#689CDE;" d="M203.705,294.926c0,0,0.307,0.001,0.899,0.002c0.297,0.003,0.665,0.005,1.103,0.009
						c0.438,0.064,0.947,0.137,1.523,0.221c2.292,0.41,5.593,1.468,9.417,3.546c3.836,2.047,8.26,4.946,13.006,8.655
						c4.76,3.692,9.91,8.116,15.283,13.178c5.397,5.04,11.088,10.649,16.927,16.738c5.839,6.088,11.871,12.613,18.004,19.447
						c3.082,3.404,6.165,6.905,9.282,10.451c3.12,3.542,6.262,7.14,9.399,10.789c6.305,7.271,12.623,14.722,18.967,22.141
						c6.319,7.43,12.638,14.86,18.858,22.174c3.124,3.637,6.224,7.245,9.286,10.811c3.083,3.541,6.13,7.039,9.126,10.479
						c6.024,6.847,11.893,13.419,17.59,19.514c5.696,6.094,11.169,11.766,16.399,16.805c5.253,5.01,10.2,9.46,14.816,13.104
						c4.632,3.615,8.878,6.497,12.598,8.475c3.716,1.97,6.854,3.145,9.08,3.59c1.1,0.313,1.974,0.358,2.559,0.457
						c0.588,0.081,0.892,0.123,0.892,0.123s-0.306,0.005-0.897,0.014c-0.592-0.013-1.489,0.088-2.635-0.083
						c-2.311-0.167-5.701-0.859-9.745-2.474c-4.051-1.59-8.779-4.01-13.849-7.296c-5.087-3.263-10.566-7.313-16.255-12.05
						c-5.712-4.712-11.69-10.048-17.788-15.906c-6.103-5.854-12.349-12.204-18.665-18.895c-3.175-3.331-6.333-6.776-9.521-10.27
						c-3.196-3.487-6.387-7.053-9.577-10.667c-6.405-7.208-12.771-14.642-19.126-22.075c-6.315-7.465-12.614-14.936-18.758-22.329
						c-6.146-7.379-12.196-14.642-18.05-21.669c-5.864-7.011-11.536-13.776-16.986-20.12c-5.458-6.335-10.649-12.291-15.58-17.65
						c-4.953-5.335-9.569-10.151-13.86-14.198c-4.311-4.019-8.231-7.346-11.703-9.738c-3.465-2.394-6.451-3.894-8.604-4.565
						c-0.543-0.16-1.023-0.3-1.437-0.422c-0.432-0.069-0.796-0.128-1.088-0.174C204.008,294.973,203.705,294.926,203.705,294.926z"
						/>
				</g>
				<g style="opacity:0.53;">
					<path style="fill:#689CDE;" d="M166.8,294.926c0,0,0.306,0.001,0.898,0.002c0.297,0.003,0.665,0.005,1.102,0.009
						c0.439,0.064,0.948,0.137,1.524,0.221c2.292,0.41,5.592,1.468,9.417,3.546c3.835,2.047,8.259,4.946,13.005,8.655
						c4.76,3.692,9.91,8.116,15.284,13.178c5.395,5.04,11.087,10.649,16.926,16.738c5.839,6.088,11.872,12.613,18.005,19.447
						c3.082,3.404,6.165,6.905,9.281,10.451c3.12,3.542,6.262,7.14,9.399,10.789c6.306,7.271,12.623,14.722,18.967,22.141
						c6.319,7.43,12.639,14.86,18.858,22.174c3.125,3.637,6.224,7.245,9.286,10.811c3.084,3.541,6.13,7.039,9.126,10.479
						c6.024,6.847,11.894,13.419,17.59,19.514c5.696,6.094,11.17,11.766,16.399,16.805c5.253,5.01,10.2,9.46,14.816,13.104
						c4.632,3.615,8.879,6.497,12.598,8.475c3.717,1.97,6.854,3.145,9.08,3.59c1.101,0.313,1.974,0.358,2.559,0.457
						c0.589,0.081,0.893,0.123,0.893,0.123s-0.306,0.005-0.898,0.014c-0.591-0.013-1.489,0.088-2.634-0.083
						c-2.312-0.167-5.702-0.859-9.746-2.474c-4.051-1.59-8.778-4.01-13.849-7.296c-5.087-3.263-10.566-7.313-16.255-12.05
						c-5.712-4.712-11.69-10.048-17.788-15.906c-6.103-5.854-12.349-12.204-18.665-18.895c-3.175-3.331-6.333-6.776-9.521-10.27
						c-3.195-3.487-6.387-7.053-9.577-10.667c-6.405-7.208-12.771-14.642-19.125-22.075c-6.316-7.465-12.614-14.936-18.758-22.329
						c-6.148-7.379-12.196-14.642-18.051-21.669c-5.863-7.011-11.536-13.776-16.985-20.12c-5.458-6.335-10.649-12.291-15.58-17.65
						c-4.954-5.335-9.57-10.151-13.861-14.198c-4.311-4.019-8.231-7.346-11.703-9.738c-3.465-2.394-6.451-3.894-8.605-4.565
						c-0.543-0.16-1.022-0.3-1.436-0.422c-0.433-0.069-0.796-0.128-1.089-0.174C167.102,294.973,166.8,294.926,166.8,294.926z"/>
				</g>
			</g>
		</g>
		<g>
			<rect x="421.602" y="389.276" style="fill:none;" width="281.999" height="52"/>
			<text transform="matrix(1 0 0 1 428.7857 396.5752)"><tspan x="0" y="0" style="fill:#FFFFFF; font-family:'Raleway-Light'; font-size:10px;">&quot;Lorem ipsum dolor sit amet, consectetur adipiscing elit, sed </tspan><tspan x="-6.63" y="16.544" style="fill:#FFFFFF; font-family:'Raleway-Light'; font-size:10px;">do eua. Ut enim ad minim veniam, quis nostrud in reprehende </tspan><tspan x="123.979" y="33.088" style="fill:#FFFFFF; font-family:'Raleway-Light'; font-size:10px;">velit esse cillum proident, sunt in.</tspan></text>
			
				<text transform="matrix(1 0 0 1 438.0982 369.6445)" style="fill:#FFFFFF; font-family:'Raleway-BoldItalic'; font-size:30px; letter-spacing:1;">SPORT Banners</text>
			<text transform="matrix(0.9885 0 0 1 573.9571 455.5186)" style="fill:#FFFFFF; font-family:'Raleway-Bold'; font-size:12px;">www.website.com</text>
		</g>
	</g>-->
	<g>
		<g>
			
				<linearGradient id="SVGID_00000170245817553004293970000006724950610530964666_" gradientUnits="userSpaceOnUse" x1="522.3101" y1="379.0447" x2="277.69" y2="-44.6497">
				<stop  offset="0" style="stop-color:#007C46"/>
				<stop  offset="1" style="stop-color:#78B72B"/>
			</linearGradient>
			
				<rect x="55" y="83.92" style="fill:url(#SVGID_00000170245817553004293970000006724950610530964666_);" width="690" height="166.554"/>
			<g>
				<g>
					
						<linearGradient id="SVGID_00000071543613605418292890000004199077362925499548_" gradientUnits="userSpaceOnUse" x1="-31.0763" y1="98.9537" x2="-53.1494" y2="60.722" gradientTransform="matrix(-1 0 0 1 646.1622 0)">
						<stop  offset="0" style="stop-color:#F1510B"/>
						<stop  offset="0.6524" style="stop-color:#F78806"/>
						<stop  offset="1" style="stop-color:#FAA104"/>
					</linearGradient>
					<path style="fill:url(#SVGID_00000071543613605418292890000004199077362925499548_);" d="M651.2,83.92
						c0,0,15.27-17.954,21.801-20.171c6.823-2.315,12.803-2.921,18.034-2.921c23.889,0,29.601,23.092,29.601,23.092H651.2z"/>
					
						<linearGradient id="SVGID_00000170254236118182219600000005345022711365371274_" gradientUnits="userSpaceOnUse" x1="370.6925" y1="271.4463" x2="349.2338" y2="234.2787" gradientTransform="matrix(-1 0 0 1 646.1622 0)">
						<stop  offset="0.123" style="stop-color:#D23600"/>
						<stop  offset="1" style="stop-color:#F1510B"/>
					</linearGradient>
					<path style="fill:url(#SVGID_00000170254236118182219600000005345022711365371274_);" d="M324.981,250.475
						c0,0-19.532,21.028-36.494,21.028c-27.922,0-38.311-21.028-38.311-21.028H324.981z"/>
					
						<linearGradient id="SVGID_00000010272814146126432990000012733487875134888609_" gradientUnits="userSpaceOnUse" x1="252.8322" y1="333.1886" x2="59.9706" y2="-0.8576" gradientTransform="matrix(-1 0 0 1 646.1622 0)">
						<stop  offset="0" style="stop-color:#F1510B"/>
						<stop  offset="0.1522" style="stop-color:#F46D09"/>
						<stop  offset="0.4195" style="stop-color:#F99905"/>
						<stop  offset="0.6595" style="stop-color:#FCB902"/>
						<stop  offset="0.8612" style="stop-color:#FECC01"/>
						<stop  offset="1" style="stop-color:#FFD300"/>
					</linearGradient>
					<path style="fill:url(#SVGID_00000010272814146126432990000012733487875134888609_);" d="M477.535,271.502
						c56.966,0,153.966-210.674,215.5-210.674c0,0-153.485-0.033-181.534-0.033c-40.129,0-173.014,210.707-225.015,210.707
						C286.486,271.502,456.001,271.502,477.535,271.502z"/>
					<g>
						<g style="opacity:0.53;">
							<path style="fill:#FFC780;" d="M563.673,60.795c0,0-0.303,0.047-0.89,0.138c-0.292,0.047-0.656,0.105-1.088,0.175
								c-0.414,0.122-0.894,0.262-1.437,0.422c-2.153,0.672-5.14,2.171-8.604,4.565c-3.472,2.393-7.392,5.72-11.703,9.738
								c-4.291,4.047-8.907,8.864-13.86,14.198c-4.931,5.36-10.122,11.315-15.58,17.651c-5.45,6.344-11.123,13.109-16.986,20.12
								c-5.854,7.028-11.903,14.29-18.05,21.669c-6.144,7.393-12.442,14.863-18.759,22.329c-6.354,7.433-12.72,14.866-19.125,22.075
								c-3.19,3.615-6.381,7.18-9.577,10.667c-3.188,3.494-6.347,6.939-9.521,10.27c-6.316,6.69-12.561,13.04-18.665,18.895
								c-6.098,5.858-12.076,11.195-17.788,15.906c-5.689,4.737-11.168,8.788-16.255,12.05c-5.07,3.287-9.798,5.706-13.849,7.296
								c-4.044,1.615-7.435,2.307-9.745,2.474c-1.146,0.171-2.043,0.07-2.635,0.083c-0.592-0.009-0.898-0.013-0.898-0.013
								s0.305-0.042,0.893-0.123c0.585-0.099,1.459-0.145,2.559-0.457c2.227-0.446,5.363-1.62,9.08-3.59
								c3.719-1.977,7.966-4.859,12.598-8.474c4.616-3.644,9.564-8.094,14.816-13.104c5.23-5.039,10.703-10.71,16.399-16.805
								c5.696-6.095,11.565-12.667,17.591-19.513c2.996-3.441,6.041-6.939,9.125-10.48c3.063-3.565,6.162-7.173,9.286-10.811
								c6.22-7.314,12.539-14.744,18.858-22.174c6.344-7.419,12.662-14.87,18.967-22.141c3.139-3.648,6.279-7.246,9.399-10.789
								c3.117-3.546,6.2-7.046,9.282-10.451c6.133-6.834,12.165-13.359,18.004-19.447c5.839-6.089,11.53-11.698,16.927-16.738
								c5.373-5.062,10.523-9.485,15.283-13.177c4.746-3.709,9.17-6.608,13.006-8.656c3.824-2.078,7.124-3.136,9.417-3.545
								c0.576-0.083,1.084-0.157,1.523-0.221c0.438-0.003,0.806-0.006,1.103-0.008C563.366,60.796,563.673,60.795,563.673,60.795z"
								/>
						</g>
						<g style="opacity:0.53;">
							<path style="fill:#FFC780;" d="M600.579,60.795c0,0-0.303,0.047-0.89,0.138c-0.293,0.047-0.656,0.105-1.089,0.175
								c-0.413,0.122-0.893,0.262-1.436,0.422c-2.153,0.672-5.14,2.171-8.604,4.565c-3.472,2.393-7.393,5.72-11.703,9.738
								c-4.291,4.047-8.907,8.864-13.86,14.198c-4.932,5.36-10.123,11.315-15.581,17.651c-5.45,6.344-11.122,13.109-16.985,20.12
								c-5.854,7.028-11.903,14.29-18.051,21.669c-6.144,7.393-12.441,14.863-18.758,22.329
								c-6.355,7.433-12.721,14.866-19.125,22.075c-3.19,3.615-6.382,7.18-9.577,10.667c-3.189,3.494-6.347,6.939-9.521,10.27
								c-6.317,6.69-12.563,13.04-18.665,18.895c-6.098,5.858-12.076,11.195-17.788,15.906c-5.688,4.737-11.169,8.788-16.255,12.05
								c-5.07,3.287-9.798,5.706-13.849,7.296c-4.044,1.615-7.435,2.307-9.746,2.474c-1.145,0.171-2.043,0.07-2.634,0.083
								c-0.593-0.009-0.898-0.013-0.898-0.013s0.304-0.042,0.893-0.123c0.585-0.099,1.459-0.145,2.559-0.457
								c2.227-0.446,5.363-1.62,9.08-3.59c3.719-1.977,7.966-4.859,12.598-8.474c4.616-3.644,9.564-8.094,14.816-13.104
								c5.229-5.039,10.703-10.71,16.398-16.805c5.697-6.095,11.566-12.667,17.591-19.513c2.996-3.441,6.042-6.939,9.126-10.48
								c3.063-3.565,6.161-7.173,9.285-10.811c6.221-7.314,12.54-14.744,18.859-22.174c6.344-7.419,12.661-14.87,18.967-22.141
								c3.138-3.648,6.279-7.246,9.399-10.789c3.116-3.546,6.199-7.046,9.281-10.451c6.133-6.834,12.166-13.359,18.005-19.447
								c5.839-6.089,11.53-11.698,16.926-16.738c5.374-5.062,10.524-9.485,15.284-13.177c4.746-3.709,9.17-6.608,13.005-8.656
								c3.825-2.078,7.125-3.136,9.417-3.545c0.576-0.083,1.085-0.157,1.524-0.221c0.438-0.003,0.806-0.006,1.102-0.008
								C600.273,60.796,600.579,60.795,600.579,60.795z"/>
						</g>
						<g style="opacity:0.53;">
							<path style="fill:#FFC780;" d="M637.484,60.795c0,0-0.303,0.047-0.889,0.138c-0.293,0.047-0.657,0.105-1.089,0.175
								c-0.414,0.122-0.894,0.262-1.436,0.422c-2.153,0.672-5.14,2.171-8.604,4.565c-3.472,2.393-7.393,5.72-11.704,9.738
								c-4.291,4.047-8.906,8.864-13.86,14.198c-4.931,5.36-10.122,11.315-15.58,17.651c-5.45,6.344-11.122,13.109-16.985,20.12
								c-5.854,7.028-11.904,14.29-18.051,21.669c-6.144,7.393-12.441,14.863-18.758,22.329
								c-6.355,7.433-12.721,14.866-19.125,22.075c-3.191,3.615-6.382,7.18-9.578,10.667c-3.188,3.494-6.347,6.939-9.521,10.27
								c-6.316,6.69-12.562,13.04-18.664,18.895c-6.099,5.858-12.077,11.195-17.789,15.906c-5.688,4.737-11.168,8.788-16.255,12.05
								c-5.069,3.287-9.797,5.706-13.848,7.296c-4.044,1.615-7.436,2.307-9.746,2.474c-1.146,0.171-2.043,0.07-2.634,0.083
								c-0.593-0.009-0.898-0.013-0.898-0.013s0.304-0.042,0.893-0.123c0.585-0.099,1.458-0.145,2.559-0.457
								c2.227-0.446,5.363-1.62,9.079-3.59c3.72-1.977,7.967-4.859,12.599-8.474c4.616-3.644,9.564-8.094,14.816-13.104
								c5.229-5.039,10.702-10.71,16.398-16.805c5.697-6.095,11.566-12.667,17.591-19.513c2.996-3.441,6.042-6.939,9.126-10.48
								c3.062-3.565,6.161-7.173,9.285-10.811c6.221-7.314,12.54-14.744,18.859-22.174c6.343-7.419,12.661-14.87,18.966-22.141
								c3.139-3.648,6.279-7.246,9.4-10.789c3.116-3.546,6.199-7.046,9.281-10.451c6.133-6.834,12.166-13.359,18.005-19.447
								c5.839-6.089,11.529-11.698,16.926-16.738c5.373-5.062,10.523-9.485,15.284-13.177c4.746-3.709,9.17-6.608,13.005-8.656
								c3.824-2.078,7.125-3.136,9.417-3.545c0.576-0.083,1.085-0.157,1.524-0.221c0.438-0.003,0.806-0.006,1.102-0.008
								C637.179,60.796,637.484,60.795,637.484,60.795z"/>
						</g>
					</g>
				</g>
				
					<linearGradient id="SVGID_00000041996290567310312300000008861739659456599946_" gradientUnits="userSpaceOnUse" x1="188.8389" y1="72.3745" x2="368.9082" y2="72.3745">
					<stop  offset="0.123" style="stop-color:#D23600"/>
					<stop  offset="1" style="stop-color:#F1510B"/>
				</linearGradient>
				<polygon style="fill:url(#SVGID_00000041996290567310312300000008861739659456599946_);" points="200.831,83.92 188.839,60.829 
					368.908,83.92 				"/>
				
					<linearGradient id="SVGID_00000002359997050140724650000002240302061678402743_" gradientUnits="userSpaceOnUse" x1="617.8123" y1="283.3849" x2="579.8109" y2="217.5644">
					<stop  offset="0.123" style="stop-color:#D23600"/>
					<stop  offset="1" style="stop-color:#F1510B"/>
				</linearGradient>
				<polygon style="fill:url(#SVGID_00000002359997050140724650000002240302061678402743_);" points="674.815,250.475 
					560.211,278.52 522.809,250.475 				"/>
			</g>
		</g>
		<g>
			<rect x="77.641" y="155.745" style="fill:none;" width="281.999" height="52"/>
			<text transform="matrix(1 0 0 1 77.6407 163.0449)"><tspan x="0" y="0" style="fill:#FFFFFF; font-family:'Raleway-Light'; font-size:10px;">&quot;Lorem ipsum dolor sit amet, consectetur adipiscing elit, sed </tspan><tspan x="0" y="16.544" style="fill:#FFFFFF; font-family:'Raleway-Light'; font-size:10px;">do eua. Ut enim ad minim veniam, quis nostrud dolor in </tspan><tspan x="0" y="33.088" style="fill:#FFFFFF; font-family:'Raleway-Light'; font-size:10px;">reprehende velit esse cillum proident, sunt in.</tspan></text>
			
				<text transform="matrix(1 0 0 1 77.6412 136.1133)" style="fill:#FFFFFF; font-family:'Raleway-BoldItalic'; font-size:30px; letter-spacing:1;">SPORT Banners</text>
			<text transform="matrix(0.9885 0 0 1 77.6407 221.9873)" style="fill:#FFFFFF; font-family:'Raleway-Bold'; font-size:12px;">www.website.com</text>
		</g>
	</g>
</g>
</svg>
